<svg width="257" height="500" viewBox="0 0 257 500" fill="none" xmlns="http://www.w3.org/2000/svg">
<path opacity="0.59" d="M232.061 62.6405C233.959 62.6405 235.497 61.1001 235.497 59.1999C235.497 57.2998 233.959 55.7594 232.061 55.7594C230.163 55.7594 228.625 57.2998 228.625 59.1999C228.625 61.1001 230.163 62.6405 232.061 62.6405Z" fill="#E15C56"/>
<path opacity="0.59" d="M229.01 23.3613C229.01 25.1753 227.546 26.6419 225.734 26.6419C223.923 26.6419 222.458 25.1753 222.458 23.3613C222.458 21.5473 223.923 20.0807 225.734 20.0807C227.546 20.0807 229.01 21.5473 229.01 23.3613Z" fill="#215B74"/>
<path opacity="0.59" d="M199.039 6.92511C200.036 7.92308 200.036 9.53306 199.039 10.531C198.042 11.529 196.434 11.529 195.438 10.531C194.441 9.53306 194.441 7.92308 195.438 6.92511C196.429 5.92714 198.042 5.92714 199.039 6.92511Z" fill="#FFCE68"/>
<path opacity="0.59" d="M174.596 2.41497C174.596 3.74927 173.517 4.82995 172.184 4.82995C170.852 4.82995 169.772 3.74927 169.772 2.41497C169.772 1.08067 170.852 0 172.184 0C173.517 0 174.596 1.08067 174.596 2.41497Z" fill="#FFCE68"/>
<path opacity="0.59" d="M5.82364 168.585C5.82364 169.919 4.74438 171 3.41182 171C2.07926 171 1 169.919 1 168.585C1 167.251 2.07926 166.17 3.41182 166.17C4.74438 166.17 5.82364 167.251 5.82364 168.585Z" fill="#FFCE68"/>
<path opacity="0.59" d="M191.996 24.5302C191.996 25.1753 191.473 25.6991 190.829 25.6991C190.185 25.6991 189.661 25.1753 189.661 24.5302C189.661 23.8851 190.185 23.3613 190.829 23.3613C191.473 23.3613 191.996 23.8851 191.996 24.5302Z" fill="#23809B"/>
<path opacity="0.59" d="M223.664 2.41497C224.33 2.41497 224.87 1.87436 224.87 1.20749C224.87 0.54061 224.33 0 223.664 0C222.998 0 222.458 0.54061 222.458 1.20749C222.458 1.87436 222.998 2.41497 223.664 2.41497Z" fill="#23809B"/>
<path opacity="0.59" d="M245.794 76.9318C246.46 76.9318 247 76.3912 247 75.7243C247 75.0575 246.46 74.5168 245.794 74.5168C245.128 74.5168 244.588 75.0575 244.588 75.7243C244.588 76.3912 245.128 76.9318 245.794 76.9318Z" fill="#23809B"/>
<path opacity="0.59" d="M128.898 13.6132C130.245 13.6132 131.337 12.5196 131.337 11.1706C131.337 9.82165 130.245 8.72809 128.898 8.72809C127.551 8.72809 126.459 9.82165 126.459 11.1706C126.459 12.5196 127.551 13.6132 128.898 13.6132Z" fill="#DC894E"/>
<path opacity="0.59" d="M67.5398 41.9367C68.7258 41.9367 69.6873 40.974 69.6873 39.7864C69.6873 38.5988 68.7258 37.6361 67.5398 37.6361C66.3537 37.6361 65.3923 38.5988 65.3923 39.7864C65.3923 40.974 66.3537 41.9367 67.5398 41.9367Z" fill="#23809B"/>
<path opacity="0.59" d="M69.6873 18.7243C69.6873 20.3233 68.3933 21.6135 66.8019 21.6135C65.205 21.6135 63.9165 20.3178 63.9165 18.7243C63.9165 17.1309 65.2105 15.8352 66.8019 15.8352C68.3933 15.8352 69.6873 17.1254 69.6873 18.7243Z" fill="#FFCE68"/>
<path opacity="0.59" d="M27.0785 49.3581C27.0785 50.8909 25.834 52.137 24.3032 52.137C22.7724 52.137 21.528 50.8909 21.528 49.3581C21.528 47.8253 22.7724 46.5792 24.3032 46.5792C25.834 46.5792 27.0785 47.8198 27.0785 49.3581Z" fill="#FFCE68"/>
<path opacity="0.59" d="M54.941 40.9498C54.941 41.865 54.1977 42.6039 53.2891 42.6039C52.375 42.6039 51.6372 41.8595 51.6372 40.9498C51.6372 40.0345 52.3805 39.2957 53.2891 39.2957C54.1977 39.2902 54.941 40.0345 54.941 40.9498Z" fill="#215B74"/>
<path opacity="0.59" d="M19.397 156.345C19.397 157.26 18.6536 157.999 17.7451 157.999C16.831 157.999 16.0931 157.255 16.0931 156.345C16.0931 155.43 16.8365 154.691 17.7451 154.691C18.6591 154.691 19.397 155.43 19.397 156.345Z" fill="#215B74"/>
<path opacity="0.59" d="M28.846 22.3523C28.846 23.6094 27.8273 24.6239 26.5774 24.6239C25.3219 24.6239 24.3087 23.6039 24.3087 22.3523C24.3087 21.0952 25.3274 20.0807 26.5774 20.0807C27.8273 20.0807 28.846 21.1007 28.846 22.3523Z" fill="#DC894E"/>
<path opacity="0.59" d="M5.35009 84.6564C5.35009 85.726 4.48558 86.5972 3.41182 86.5972C2.34357 86.5972 1.47356 85.7316 1.47356 84.6564C1.47356 83.5868 2.33807 82.7156 3.41182 82.7156C4.48007 82.7156 5.35009 83.5868 5.35009 84.6564Z" fill="#E15C56"/>
<path opacity="0.24" d="M129.459 479.984C128.112 479.984 127.02 481.078 127.02 482.427C127.02 483.776 128.112 484.869 129.459 484.869C130.807 484.869 131.899 483.776 131.899 482.427C131.899 481.078 130.807 479.984 129.459 479.984Z" fill="#DC894E"/>
<path opacity="0.24" d="M190.818 451.66C189.632 451.66 188.67 452.623 188.67 453.811C188.67 454.998 189.632 455.961 190.818 455.961C192.004 455.961 192.965 454.998 192.965 453.811C192.965 452.623 192.004 451.66 190.818 451.66Z" fill="#23809B"/>
<path opacity="0.24" d="M23.6784 450.687C23.0853 449.66 21.7709 449.308 20.7424 449.902C19.7139 450.496 19.3609 451.81 19.9539 452.837C20.5469 453.864 21.8614 454.216 22.8899 453.622C23.9184 453.028 24.2714 451.714 23.6784 450.687Z" fill="#23809B"/>
<path opacity="0.24" d="M188.67 474.873C188.67 473.274 189.964 471.984 191.555 471.984C193.152 471.984 194.441 473.279 194.441 474.873C194.441 476.466 193.147 477.762 191.555 477.762C189.964 477.762 188.67 476.472 188.67 474.873Z" fill="#FFCE68"/>
<path opacity="0.24" d="M2.50207 460.433C3.88681 459.634 5.65115 460.109 6.44683 461.488C7.24527 462.87 6.7674 464.634 5.38744 465.431C4.00748 466.228 2.23837 465.755 1.44269 464.377C0.647006 462.999 1.11734 461.233 2.50207 460.433Z" fill="#FFCE68"/>
<path opacity="0.24" d="M231.279 444.239C231.279 442.706 232.523 441.46 234.054 441.46C235.585 441.46 236.829 442.706 236.829 444.239C236.829 445.772 235.585 447.018 234.054 447.018C232.523 447.018 231.279 445.777 231.279 444.239Z" fill="#FFCE68"/>
<path opacity="0.24" d="M50.3361 482.017C51.6635 481.25 53.3649 481.705 54.1303 483.031C54.8957 484.356 54.4388 486.057 53.1114 486.824C51.7839 487.59 50.0826 487.135 49.3172 485.81C48.5518 484.484 49.0039 482.786 50.3361 482.017Z" fill="#FFCE68"/>
<path opacity="0.24" d="M203.416 452.647C203.416 451.732 204.16 450.993 205.068 450.993C205.982 450.993 206.72 451.738 206.72 452.647C206.72 453.563 205.977 454.301 205.068 454.301C204.16 454.307 203.416 453.563 203.416 452.647Z" fill="#215B74"/>
<path opacity="0.24" d="M29.123 462.091C29.9156 461.634 30.9272 461.908 31.3815 462.695C31.8385 463.486 31.5628 464.497 30.7749 464.952C29.9823 465.41 28.9708 465.136 28.5165 464.349C28.0574 463.565 28.3304 462.549 29.123 462.091Z" fill="#215B74"/>
<path d="M228.94 337.654C228.94 336.739 229.684 336 230.592 336C231.506 336 232.244 336.744 232.244 337.654C232.244 338.569 231.501 339.308 230.592 339.308C229.678 339.308 228.94 338.569 228.94 337.654Z" fill="#215B74"/>
<path opacity="0.24" d="M146.83 435.176C147.623 434.718 148.634 434.992 149.088 435.779C149.546 436.571 149.27 437.582 148.482 438.037C147.689 438.495 146.678 438.22 146.223 437.433C145.766 436.642 146.037 435.633 146.83 435.176Z" fill="#215B74"/>
<path opacity="0.24" d="M229.511 471.245C229.511 469.988 230.53 468.973 231.78 468.973C233.035 468.973 234.049 469.993 234.049 471.245C234.049 472.502 233.03 473.517 231.78 473.517C230.53 473.517 229.511 472.497 229.511 471.245Z" fill="#DC894E"/>
<path opacity="0.24" d="M26.0646 493.989C27.1533 493.36 28.5412 493.735 29.1662 494.818C29.7939 495.905 29.4172 497.292 28.3332 497.918C27.2446 498.547 25.8566 498.172 25.2316 497.089C24.6067 496.007 24.9807 494.615 26.0646 493.989Z" fill="#DC894E"/>
<path opacity="0.24" d="M253.007 408.941C253.007 407.871 253.872 407 254.946 407C256.014 407 256.884 407.866 256.884 408.941C256.884 410.01 256.019 410.882 254.946 410.882C253.877 410.882 253.007 410.01 253.007 408.941Z" fill="#E15C56"/>
<path opacity="0.24" d="M91.7695 483.185C92.6959 482.65 93.8826 482.963 94.4194 483.893C94.9536 484.818 94.6389 486.004 93.7078 486.542C92.7815 487.077 91.5948 486.764 91.0579 485.834C90.5238 484.909 90.8432 483.72 91.7695 483.185Z" fill="#E15C56"/>
</svg>
