<svg width="71" height="18" viewBox="0 0 71 18" fill="none" xmlns="http://www.w3.org/2000/svg">
<path d="M16.3742 5H12.6782V4.568C12.6782 3.64 12.4702 2.936 12.0542 2.456C11.6542 1.96 11.1182 1.568 10.4462 1.28L10.2062 1.256V17H6.39019V1.256H6.15019C4.64619 1.848 3.89419 2.96 3.89419 4.592V5H0.222188V4.592C0.222188 3.744 0.454188 3.024 0.918188 2.432C1.38219 1.824 2.01419 1.368 2.81419 1.064C3.63019 0.743999 4.47819 0.52 5.35819 0.391999C6.25419 0.263999 7.23019 0.199999 8.28619 0.199999C9.34219 0.199999 10.3102 0.263999 11.1902 0.391999C12.0862 0.52 12.9422 0.743999 13.7582 1.064C14.5742 1.368 15.2142 1.824 15.6782 2.432C16.1422 3.024 16.3742 3.744 16.3742 4.592V5ZM31.3956 10.76C31.3956 12.728 30.8196 14.304 29.6676 15.488C28.5156 16.656 26.8996 17.24 24.8196 17.24C22.7556 17.24 21.1476 16.656 19.9956 15.488C18.8596 14.304 18.2916 12.728 18.2916 10.76V6.704C18.2916 4.736 18.8596 3.16 19.9956 1.976C21.1476 0.791999 22.7556 0.199999 24.8196 0.199999C26.8996 0.199999 28.5156 0.791999 29.6676 1.976C30.8196 3.16 31.3956 4.736 31.3956 6.704V10.76ZM27.5556 12.632V4.808C27.5556 3.688 27.3236 2.784 26.8596 2.096C26.3956 1.392 25.7156 1.04 24.8196 1.04C23.9396 1.04 23.2676 1.392 22.8036 2.096C22.3396 2.784 22.1076 3.688 22.1076 4.808V12.632C22.1076 13.768 22.3396 14.68 22.8036 15.368C23.2676 16.056 23.9396 16.4 24.8196 16.4C25.7156 16.4 26.3956 16.056 26.8596 15.368C27.3236 14.664 27.5556 13.752 27.5556 12.632ZM39.4359 9.8V11.6H34.0359V9.8H39.4359ZM54.8246 6.896V10.544C54.8246 12.4 54.2006 13.944 52.9526 15.176C51.7046 16.392 50.0886 17 48.1046 17H42.3206V0.439999H48.1046C50.0886 0.439999 51.7046 1.056 52.9526 2.288C54.2006 3.504 54.8246 5.04 54.8246 6.896ZM51.0326 5.768C51.0326 4.312 50.6886 3.2 50.0006 2.432C49.3286 1.648 48.4006 1.256 47.2166 1.256H46.1126V16.184H47.2166C48.4006 16.184 49.3286 15.8 50.0006 15.032C50.6886 14.248 51.0326 13.128 51.0326 11.672V5.768ZM70.8174 10.76C70.8174 12.728 70.2414 14.304 69.0894 15.488C67.9374 16.656 66.3214 17.24 64.2414 17.24C62.1774 17.24 60.5694 16.656 59.4174 15.488C58.2814 14.304 57.7134 12.728 57.7134 10.76V6.704C57.7134 4.736 58.2814 3.16 59.4174 1.976C60.5694 0.791999 62.1774 0.199999 64.2414 0.199999C66.3214 0.199999 67.9374 0.791999 69.0894 1.976C70.2414 3.16 70.8174 4.736 70.8174 6.704V10.76ZM66.9774 12.632V4.808C66.9774 3.688 66.7454 2.784 66.2814 2.096C65.8174 1.392 65.1374 1.04 64.2414 1.04C63.3614 1.04 62.6894 1.392 62.2254 2.096C61.7614 2.784 61.5294 3.688 61.5294 4.808V12.632C61.5294 13.768 61.7614 14.68 62.2254 15.368C62.6894 16.056 63.3614 16.4 64.2414 16.4C65.1374 16.4 65.8174 16.056 66.2814 15.368C66.7454 14.664 66.9774 13.752 66.9774 12.632Z" fill="#29333B"/>
</svg>
