<svg width="85" height="85" viewBox="0 0 85 85" fill="none" xmlns="http://www.w3.org/2000/svg">
<rect x="2.95651" y="2.95651" width="79.087" height="79.087" rx="34" fill="#FFF6E3"/>
<path d="M42.8696 51H64.3044V56.1739H42.8696V51Z" fill="#29333C"/>
<path d="M42.8696 28.8261H64.3044V34H42.8696V28.8261Z" fill="#29333B"/>
<path d="M34 23.6522H17.7391V39.913H34V23.6522ZM28.5797 34.4927H23.1594V29.0725H28.5797V34.4927Z" fill="#29333B"/>
<path d="M79.3211 34.2577C79.7715 43.9307 79.4382 53.6242 78.3244 63.2434C77.8872 67.0872 76.1593 70.6693 73.423 73.4045C70.6867 76.1396 67.1036 77.8662 63.259 78.3023C49.4704 79.9074 35.5421 79.9074 21.7535 78.3023C17.9091 77.8658 14.3263 76.139 11.5901 73.4039C8.85382 70.6688 7.1258 67.087 6.68815 63.2434C5.08414 49.4591 5.08414 35.5354 6.68815 21.7511C7.1258 17.9075 8.85382 14.3257 11.5901 11.5906C14.3263 8.85551 17.9091 7.12874 21.7535 6.69221C35.5421 5.08676 49.4704 5.08676 63.259 6.69221C67.1036 7.12826 70.6867 8.85488 73.423 11.59C76.1593 14.3252 77.8872 17.9073 78.3244 21.7511C78.5986 24.0814 78.8056 26.4295 78.9852 28.7734H84.484C84.2949 26.217 84.0728 23.6633 83.7725 21.1165C83.1963 16.0437 80.9167 11.3162 77.3061 7.70619C73.6955 4.09615 68.9673 1.81692 63.8938 1.24078C49.6839 -0.413594 35.33 -0.413594 21.1201 1.24078C16.0466 1.81692 11.3184 4.09615 7.70778 7.70619C4.09718 11.3162 1.8176 16.0437 1.24137 21.1165C-0.413791 35.3241 -0.413791 49.6759 1.24137 63.8835C1.8176 68.9563 4.09718 73.6838 7.70778 77.2938C11.3184 80.9038 16.0466 83.1831 21.1201 83.7592C35.33 85.4136 49.6839 85.4136 63.8938 83.7592C68.9673 83.1831 73.6955 80.9038 77.3061 77.2938C80.9167 73.6838 83.1963 68.9563 83.7725 63.8835C84.9117 54.0538 85.2588 44.1485 84.8103 34.2632L79.3211 34.2577Z" fill="#29333B"/>
<path d="M17.7391 45.0869V50.7536H28.5797V56.4203H17.7391V62.0869H34V45.0869H17.7391Z" fill="#29333B"/>
</svg>
