<svg width="89" height="97" viewBox="0 0 89 97" fill="none" xmlns="http://www.w3.org/2000/svg">
<path d="M86.3872 30.1831L36.9388 2.75912L0.431039 68.5866L49.8795 96.0106L86.3872 30.1831Z" fill="#215B74"/>
<path opacity="0.2" d="M80.9004 32.9401L37.5056 8.87344L4.80115 67.8432L48.1959 91.9098L80.9004 32.9401Z" fill="#1D262D"/>
<path d="M81.4588 31.9333L38.064 7.86665L5.35952 66.8364L48.7543 90.903L81.4588 31.9333Z" fill="white"/>
<path d="M34.4505 6.73397L36.843 2.42001L41.1662 4.81762L34.4505 6.73397Z" fill="#DC894E"/>
<path d="M84.3331 34.3987L86.7256 30.0848L82.4025 27.6872L84.3331 34.3987Z" fill="#DC894E"/>
<path d="M2.3925 64.5381L-1.07988e-05 68.852L4.32313 71.2496L2.3925 64.5381Z" fill="#DC894E"/>
<path d="M52.2751 92.2028L49.8826 96.5168L45.5594 94.1192L52.2751 92.2028Z" fill="#DC894E"/>
<path d="M60.7627 18.0921C59.057 17.1461 57.2367 17.1672 58.1819 15.463L58.3272 15.201C59.2711 13.499 61.4197 12.8858 63.1254 13.8318C64.8311 14.7778 65.4488 16.9251 64.5049 18.6271L64.3595 18.8892C63.4177 20.5924 62.4704 19.0392 60.7627 18.0921Z" fill="#FFCE68"/>
<path opacity="0.2" d="M67.4602 25.0411L51.3234 16.0916L50.5202 17.5399L66.657 26.4894L67.4602 25.0411Z" fill="#1D262D"/>
<path d="M70.5909 20.4297L53.5774 10.994L50.4126 16.7006L67.426 26.1362L70.5909 20.4297Z" fill="#FFCE68"/>
<path opacity="0.2" d="M71.004 24.7592L50.1387 13.1874L48.324 16.4595L69.1893 28.0313L71.004 24.7592Z" fill="#CC2A3A"/>
<path d="M42.284 24.4939L36.3461 21.2008L33.06 27.126L38.9978 30.4191L42.284 24.4939Z" fill="#ABD5E6"/>
<path d="M39.2776 31.3917L32.0827 27.4014L36.0645 20.2218L43.2594 24.2121L39.2776 31.3917ZM32.422 27.3063L39.1827 31.0558L42.9242 24.3095L36.1635 20.56L32.422 27.3063Z" fill="#ABD5E6"/>
<path d="M37.2507 33.5695L31.3128 30.2764L28.0267 36.2016L33.9645 39.4948L37.2507 33.5695Z" fill="#ABD5E6"/>
<path d="M34.2432 40.4694L27.0483 36.4791L31.03 29.2995L38.2249 33.2898L34.2432 40.4694ZM27.3875 36.384L34.1483 40.1335L37.8898 33.3871L31.1291 29.6377L27.3875 36.384Z" fill="#ABD5E6"/>
<path d="M32.2162 42.6472L26.2783 39.354L22.9922 45.2793L28.9301 48.5724L32.2162 42.6472Z" fill="#ABD5E6"/>
<path d="M29.2087 49.547L22.0138 45.5567L25.9956 38.3771L33.1905 42.3674L29.2087 49.547ZM22.3531 45.4617L29.1138 49.2111L32.8553 42.4648L26.0946 38.7153L22.3531 45.4617Z" fill="#ABD5E6"/>
<path d="M35.9907 27.5887L34.4393 22.3041C34.3319 21.937 34.5415 21.5542 34.9077 21.4497C35.275 21.3432 35.6574 21.5553 35.7638 21.9192L36.9089 25.8211L43.3782 23.6225C43.7388 23.4987 44.1316 23.6923 44.255 24.0548C44.3795 24.4152 44.1865 24.8072 43.8238 24.9298L35.9907 27.5887Z" fill="#23809B"/>
<path d="M30.9185 36.7344L29.3671 31.4498C29.2597 31.0828 29.4693 30.7 29.8355 30.5955C30.2028 30.4889 30.5852 30.7011 30.6916 31.0649L31.8366 34.9668L38.306 32.7682C38.6666 32.6445 39.0594 32.838 39.1828 33.2005C39.3073 33.5609 39.1142 33.9529 38.7516 34.0755L30.9185 36.7344Z" fill="#23809B"/>
<path d="M25.9676 45.6615L24.4161 40.3769C24.3088 40.0098 24.5184 39.627 24.8846 39.5225C25.2518 39.416 25.6343 39.6281 25.7407 39.992L26.8857 43.8939L33.3551 41.6953C33.7157 41.5715 34.1085 41.7651 34.2319 42.1276C34.3564 42.488 34.1633 42.88 33.8007 43.0026L25.9676 45.6615Z" fill="#23809B"/>
<path d="M27.1818 51.7248L21.2439 48.4317L17.9578 54.357L23.8956 57.6501L27.1818 51.7248Z" fill="#ABD5E6"/>
<path d="M24.1754 58.6226L16.9805 54.6324L20.9623 47.4528L28.1572 51.443L24.1754 58.6226ZM17.3198 54.5373L24.0805 58.2868L27.822 51.5404L21.0613 47.7909L17.3198 54.5373Z" fill="#ABD5E6"/>
<path d="M22.1485 60.8005L16.2106 57.5073L12.9245 63.4326L18.8623 66.7257L22.1485 60.8005Z" fill="#ABD5E6"/>
<path d="M19.141 67.7003L11.9461 63.71L15.9278 56.5304L23.1227 60.5207L19.141 67.7003ZM12.2853 63.6149L19.0461 67.3644L22.7876 60.6181L16.0269 56.8686L12.2853 63.6149Z" fill="#ABD5E6"/>
<path d="M70.8404 41.4912L44.5666 26.9198L44.1695 27.6357L70.4433 42.2071L70.8404 41.4912Z" fill="#23809B"/>
<path d="M69.8884 43.2077L43.6146 28.6363L43.2175 29.3522L69.4913 43.9236L69.8884 43.2077Z" fill="#23809B"/>
<path d="M50.7858 34.8579L42.6626 30.3528L42.2656 31.0687L50.3888 35.5738L50.7858 34.8579Z" fill="#23809B"/>
<path d="M65.87 50.4533L39.5962 35.882L39.1991 36.5978L65.4729 51.1692L65.87 50.4533Z" fill="#23809B"/>
<path d="M64.918 52.1698L38.6442 37.5984L38.2472 38.3143L64.521 52.8857L64.918 52.1698Z" fill="#23809B"/>
<path d="M54.8596 48.8386L37.6911 39.317L37.2941 40.0329L54.4626 49.5545L54.8596 48.8386Z" fill="#23809B"/>
<path d="M60.8984 59.4175L34.6246 44.8462L34.2276 45.562L60.5014 60.1334L60.8984 59.4175Z" fill="#23809B"/>
<path d="M56.1443 59.0254L33.6727 46.5627L33.2757 47.2785L55.7473 59.7413L56.1443 59.0254Z" fill="#23809B"/>
<path d="M40.8439 52.7842L32.7207 48.2791L32.3237 48.995L40.4469 53.5002L40.8439 52.7842Z" fill="#23809B"/>
<path d="M55.9281 68.3797L29.6543 53.8083L29.2572 54.5242L55.531 69.0956L55.9281 68.3797Z" fill="#23809B"/>
<path d="M41.9426 62.8678L28.7023 55.5248L28.3053 56.2407L41.5455 63.5837L41.9426 62.8678Z" fill="#23809B"/>
<path d="M50.9577 77.3418L24.6839 62.7704L24.2869 63.4863L50.5607 78.0577L50.9577 77.3418Z" fill="#23809B"/>
<path d="M50.0057 79.0583L23.7319 64.4869L23.3349 65.2028L49.6087 79.7742L50.0057 79.0583Z" fill="#23809B"/>
<path d="M41.9363 76.8301L22.7788 66.2055L22.3818 66.9214L41.5393 77.546L41.9363 76.8301Z" fill="#23809B"/>
<path d="M69.7783 31.3659L44.8009 17.5135L43.8214 19.2795L68.7989 33.132L69.7783 31.3659Z" fill="#23809B"/>
<path d="M63.0746 15.6003C62.8572 15.9923 62.3626 16.1334 61.9698 15.9155C61.577 15.6977 61.4348 15.2034 61.6522 14.8114C61.8696 14.4194 62.3642 14.2783 62.757 14.4961C63.1487 14.716 63.2909 15.2103 63.0746 15.6003Z" fill="white"/>
</svg>
