<svg width="249" height="510" viewBox="0 0 249 510" fill="none" xmlns="http://www.w3.org/2000/svg">
<g clip-path="url(#clip0)">
<rect width="249" height="510" rx="7" fill="white"/>
<path opacity="0.59" d="M233.061 73.6405C234.959 73.6405 236.497 72.1001 236.497 70.1999C236.497 68.2998 234.959 66.7594 233.061 66.7594C231.163 66.7594 229.625 68.2998 229.625 70.1999C229.625 72.1001 231.163 73.6405 233.061 73.6405Z" fill="#E15C56"/>
<path opacity="0.59" d="M230.01 34.3613C230.01 36.1753 228.546 37.6419 226.734 37.6419C224.923 37.6419 223.458 36.1753 223.458 34.3613C223.458 32.5473 224.923 31.0807 226.734 31.0807C228.546 31.0807 230.01 32.5473 230.01 34.3613Z" fill="#215B74"/>
<path opacity="0.59" d="M200.039 17.9251C201.036 18.9231 201.036 20.5331 200.039 21.531C199.042 22.529 197.434 22.529 196.438 21.531C195.441 20.5331 195.441 18.9231 196.438 17.9251C197.429 16.9272 199.042 16.9272 200.039 17.9251Z" fill="#FFCE68"/>
<path opacity="0.59" d="M175.596 13.415C175.596 14.7493 174.517 15.8299 173.184 15.8299C171.852 15.8299 170.772 14.7493 170.772 13.415C170.772 12.0807 171.852 11 173.184 11C174.517 11 175.596 12.0807 175.596 13.415Z" fill="#FFCE68"/>
<path opacity="0.59" d="M6.82364 179.585C6.82364 180.919 5.74438 182 4.41182 182C3.07926 182 2 180.919 2 179.585C2 178.251 3.07926 177.17 4.41182 177.17C5.74438 177.17 6.82364 178.251 6.82364 179.585Z" fill="#FFCE68"/>
<path opacity="0.59" d="M192.996 35.5302C192.996 36.1753 192.473 36.6991 191.829 36.6991C191.185 36.6991 190.661 36.1753 190.661 35.5302C190.661 34.8851 191.185 34.3613 191.829 34.3613C192.473 34.3613 192.996 34.8851 192.996 35.5302Z" fill="#23809B"/>
<path opacity="0.59" d="M224.664 13.415C225.33 13.415 225.87 12.8744 225.87 12.2075C225.87 11.5406 225.33 11 224.664 11C223.998 11 223.458 11.5406 223.458 12.2075C223.458 12.8744 223.998 13.415 224.664 13.415Z" fill="#23809B"/>
<path opacity="0.59" d="M246.794 87.9318C247.46 87.9318 248 87.3912 248 86.7243C248 86.0574 247.46 85.5168 246.794 85.5168C246.128 85.5168 245.588 86.0574 245.588 86.7243C245.588 87.3912 246.128 87.9318 246.794 87.9318Z" fill="#23809B"/>
<path opacity="0.59" d="M129.898 24.6132C131.245 24.6132 132.337 23.5196 132.337 22.1706C132.337 20.8217 131.245 19.7281 129.898 19.7281C128.551 19.7281 127.459 20.8217 127.459 22.1706C127.459 23.5196 128.551 24.6132 129.898 24.6132Z" fill="#DC894E"/>
<path opacity="0.59" d="M68.5398 52.9367C69.7258 52.9367 70.6873 51.974 70.6873 50.7864C70.6873 49.5988 69.7258 48.6361 68.5398 48.6361C67.3537 48.6361 66.3923 49.5988 66.3923 50.7864C66.3923 51.974 67.3537 52.9367 68.5398 52.9367Z" fill="#23809B"/>
<path opacity="0.59" d="M70.6873 29.7243C70.6873 31.3233 69.3933 32.6135 67.8019 32.6135C66.205 32.6135 64.9165 31.3178 64.9165 29.7243C64.9165 28.1309 66.2105 26.8352 67.8019 26.8352C69.3933 26.8352 70.6873 28.1254 70.6873 29.7243Z" fill="#FFCE68"/>
<path opacity="0.59" d="M28.0785 60.3581C28.0785 61.8909 26.834 63.137 25.3032 63.137C23.7724 63.137 22.528 61.8909 22.528 60.3581C22.528 58.8253 23.7724 57.5792 25.3032 57.5792C26.834 57.5792 28.0785 58.8198 28.0785 60.3581Z" fill="#FFCE68"/>
<path opacity="0.59" d="M55.941 51.9498C55.941 52.8651 55.1977 53.6039 54.2891 53.6039C53.375 53.6039 52.6372 52.8595 52.6372 51.9498C52.6372 51.0345 53.3805 50.2957 54.2891 50.2957C55.1977 50.2902 55.941 51.0345 55.941 51.9498Z" fill="#215B74"/>
<path opacity="0.59" d="M20.397 167.345C20.397 168.26 19.6536 168.999 18.7451 168.999C17.831 168.999 17.0931 168.254 17.0931 167.345C17.0931 166.429 17.8365 165.691 18.7451 165.691C19.6591 165.691 20.397 166.429 20.397 167.345Z" fill="#215B74"/>
<path opacity="0.59" d="M29.846 33.3523C29.846 34.6094 28.8273 35.6239 27.5774 35.6239C26.3219 35.6239 25.3087 34.6039 25.3087 33.3523C25.3087 32.0952 26.3274 31.0807 27.5774 31.0807C28.8273 31.0807 29.846 32.1007 29.846 33.3523Z" fill="#DC894E"/>
<path opacity="0.59" d="M6.35009 95.6564C6.35009 96.726 5.48558 97.5972 4.41182 97.5972C3.34357 97.5972 2.47356 96.7316 2.47356 95.6564C2.47356 94.5868 3.33807 93.7156 4.41182 93.7156C5.48007 93.7156 6.35009 94.5868 6.35009 95.6564Z" fill="#E15C56"/>
<path opacity="0.24" d="M130.459 490.984C129.112 490.984 128.02 492.078 128.02 493.427C128.02 494.776 129.112 495.869 130.459 495.869C131.807 495.869 132.899 494.776 132.899 493.427C132.899 492.078 131.807 490.984 130.459 490.984Z" fill="#DC894E"/>
<path opacity="0.24" d="M191.818 462.66C190.632 462.66 189.67 463.623 189.67 464.811C189.67 465.998 190.632 466.961 191.818 466.961C193.004 466.961 193.965 465.998 193.965 464.811C193.965 463.623 193.004 462.66 191.818 462.66Z" fill="#23809B"/>
<path opacity="0.24" d="M24.6784 461.687C24.0853 460.66 22.7709 460.308 21.7424 460.902C20.7139 461.496 20.3609 462.81 20.9539 463.837C21.5469 464.864 22.8614 465.216 23.8899 464.622C24.9184 464.028 25.2714 462.714 24.6784 461.687Z" fill="#23809B"/>
<path opacity="0.24" d="M189.67 485.873C189.67 484.274 190.964 482.984 192.555 482.984C194.152 482.984 195.441 484.279 195.441 485.873C195.441 487.466 194.147 488.762 192.555 488.762C190.964 488.762 189.67 487.472 189.67 485.873Z" fill="#FFCE68"/>
<path opacity="0.24" d="M3.50207 471.433C4.88681 470.634 6.65115 471.109 7.44683 472.488C8.24526 473.87 7.7674 475.634 6.38744 476.431C5.00748 477.228 3.23836 476.755 2.44268 475.377C1.647 473.998 2.11734 472.233 3.50207 471.433Z" fill="#FFCE68"/>
<path opacity="0.24" d="M232.279 455.239C232.279 453.706 233.523 452.46 235.054 452.46C236.585 452.46 237.829 453.706 237.829 455.239C237.829 456.772 236.585 458.018 235.054 458.018C233.523 458.018 232.279 456.777 232.279 455.239Z" fill="#FFCE68"/>
<path opacity="0.24" d="M51.3361 493.017C52.6635 492.25 54.3649 492.705 55.1303 494.031C55.8957 495.356 55.4388 497.057 54.1114 497.824C52.7839 498.59 51.0826 498.135 50.3172 496.81C49.5518 495.484 50.0039 493.786 51.3361 493.017Z" fill="#FFCE68"/>
<path opacity="0.24" d="M204.416 463.647C204.416 462.732 205.16 461.993 206.068 461.993C206.982 461.993 207.72 462.738 207.72 463.647C207.72 464.563 206.977 465.302 206.068 465.302C205.16 465.307 204.416 464.563 204.416 463.647Z" fill="#215B74"/>
<path opacity="0.24" d="M30.123 473.091C30.9156 472.634 31.9272 472.908 32.3815 473.695C32.8385 474.486 32.5628 475.498 31.7749 475.952C30.9823 476.41 29.9708 476.136 29.5165 475.349C29.0574 474.565 29.3304 473.549 30.123 473.091Z" fill="#215B74"/>
<path d="M229.94 348.654C229.94 347.739 230.684 347 231.592 347C232.506 347 233.244 347.744 233.244 348.654C233.244 349.569 232.501 350.308 231.592 350.308C230.678 350.308 229.94 349.569 229.94 348.654Z" fill="#215B74"/>
<path opacity="0.24" d="M147.83 446.176C148.623 445.718 149.634 445.992 150.088 446.779C150.546 447.571 150.27 448.582 149.482 449.037C148.689 449.495 147.678 449.22 147.223 448.433C146.766 447.642 147.037 446.633 147.83 446.176Z" fill="#215B74"/>
<path opacity="0.24" d="M230.511 482.245C230.511 480.988 231.53 479.973 232.78 479.973C234.035 479.973 235.049 480.993 235.049 482.245C235.049 483.502 234.03 484.517 232.78 484.517C231.53 484.517 230.511 483.497 230.511 482.245Z" fill="#DC894E"/>
<path opacity="0.24" d="M27.0646 504.989C28.1533 504.36 29.5412 504.735 30.1662 505.818C30.7939 506.905 30.4172 508.292 29.3332 508.918C28.2446 509.547 26.8566 509.172 26.2316 508.089C25.6067 507.007 25.9807 505.615 27.0646 504.989Z" fill="#DC894E"/>
<path opacity="0.24" d="M92.7695 494.185C93.6959 493.65 94.8826 493.963 95.4194 494.893C95.9536 495.818 95.6389 497.004 94.7078 497.542C93.7815 498.077 92.5948 497.764 92.0579 496.834C91.5238 495.909 91.8432 494.72 92.7695 494.185Z" fill="#E15C56"/>
</g>
<defs>
<clipPath id="clip0">
<rect width="249" height="510" rx="7" fill="white"/>
</clipPath>
</defs>
</svg>
